<?xml version="1.0" standalone="no"?><!DOCTYPE svg PUBLIC "-//W3C//DTD SVG 1.1//EN" "http://www.w3.org/Graphics/SVG/1.1/DTD/svg11.dtd"><svg t="1572665623607" class="icon" viewBox="0 0 1024 1024" version="1.1" xmlns="http://www.w3.org/2000/svg" p-id="3734" xmlns:xlink="http://www.w3.org/1999/xlink" width="200" height="200"><defs><style type="text/css"></style></defs><path d="M62.6 511.6a448.1 448.1 0 1 0 896.2 0 448.1 448.1 0 1 0-896.2 0z" fill="#ffffff" p-id="3735" data-spm-anchor-id="a313x.7781069.0.i10" class="selected"></path><path d="M734.6 777.3c0 29.8-99.7 54-222.8 54-123 0-222.8-24.2-222.8-54s99.7-54 222.8-54c123.1 0 222.8 24.2 222.8 54z" fill="#58595B" p-id="3736"></path><path d="M335.8 515.8S234 503.6 243.9 381.2c0 0 97.6-14.6 133 67.3m311 67.3s101.8-12.2 91.9-134.6c0 0-97.6-14.6-133 67.3" fill="#CF7C3F" p-id="3737"></path><path d="M323.7 575.6c0 70.9 35.9 136.5 94.1 172 58.2 35.5 130 35.5 188.2 0 58.2-35.5 94.1-101 94.1-172C700 465.9 615.8 377 511.9 377c-104 0-188.2 88.9-188.2 198.6z m0 0" fill="#ECC466" p-id="3738"></path><path d="M427.8 510.5c0 6.8 3.4 13 9 16.4 5.6 3.4 12.4 3.4 18 0s9-9.6 9-16.4c0-10.5-8-18.9-18-18.9s-18 8.5-18 18.9z m132.2 0c0 10.5 8 18.9 18 18.9 9.9 0 18-8.5 18-18.9 0-10.5-8-18.9-18-18.9-9.9 0-18 8.5-18 18.9z m0 0" fill="#233640" p-id="3739"></path><path d="M607.6 653.3c0 34.3-42.9 62.1-95.8 62.1S416 687.6 416 653.3s42.9-92.7 95.8-92.7c53 0 95.8 58.4 95.8 92.7z m0 0" fill="#ECECEC" p-id="3740"></path><path d="M532.9 625.4h-42.1c-6.8 0-12.3-5.5-12.3-12.3 0-6.8 5.5-12.3 12.3-12.3h42.1c6.8 0 12.2 5.5 12.2 12.3 0 6.8-5.4 12.3-12.2 12.3z m0 0" fill="#A6592E" p-id="3741"></path><path d="M586.6 403.7c-6.4 0-11.7-4.8-12.3-11.2-0.6-6.3 3.8-12.1 10.1-13.2 1.2-0.2 122-22.8 166.2-91.1 15.8-24.4 19.8-51 12.3-81.5-1.6-6.6 2.4-13.2 9-14.8 6.6-1.6 13.2 2.4 14.8 9 9.1 36.9 3.8 70.8-15.6 100.7-50.1 77.2-177 100.8-182.4 101.8-0.6 0.3-1.4 0.3-2.1 0.3z m0 0" fill="#9A4922" p-id="3742"></path><path d="M707.5 357.3c-5.1 0-9.7-3.1-11.5-7.9-1.8-4.8-0.4-10.2 3.4-13.5 35.5-31 4.3-84 3-86.3-3.4-5.8-1.5-13.3 4.2-16.7 5.8-3.5 13.3-1.7 16.8 4.1 15.1 25 33 81.7-7.8 117.4-2.3 1.9-5.2 2.9-8.1 2.9z m-68.3 32c-5.5 0-10.3-3.6-11.8-8.9-1.5-5.3 0.7-10.9 5.4-13.8 37.6-22.9 20.6-73.4 19.8-75.6-2.3-6.4 1.1-13.4 7.5-15.6 6.4-2.3 13.4 1.1 15.6 7.5 8.7 24.5 13.6 78-30.2 104.7-1.9 1.1-4.1 1.7-6.3 1.7z m-202.1 14.4c-0.7 0-1.4-0.1-2.2-0.2-5.4-1-132.3-24.6-182.4-101.8-19.4-30-24.7-63.9-15.6-100.7 1.6-6.6 8.3-10.6 14.8-9 6.6 1.6 10.6 8.3 9 14.8-7.5 30.5-3.5 57.1 12.4 81.5 44.3 68.4 164.9 90.8 166.2 91 6.2 1.1 10.6 6.8 10 13.1-0.6 6.5-5.9 11.3-12.2 11.3z m0 0" fill="#9A4922" p-id="3743"></path><path d="M316.2 357.3c-3 0-5.8-1.1-8.1-3-40.8-35.7-22.9-92.4-7.8-117.4 3.6-5.5 11-7.2 16.6-3.8 5.6 3.4 7.6 10.7 4.4 16.4-1.3 2.2-32.5 55.2 3 86.3 3.9 3.4 5.2 8.8 3.4 13.5-1.8 4.9-6.4 8-11.5 8z m68.3 32c-2.2 0-4.4-0.6-6.4-1.8-43.8-26.7-38.9-80.1-30.2-104.7 2.4-6.2 9.3-9.4 15.5-7.2 6.3 2.2 9.6 9 7.6 15.4-0.8 2.4-17.7 52.7 19.8 75.5 4.7 2.9 6.9 8.5 5.4 13.8-1.4 5.4-6.2 9-11.7 9z m0 0" fill="#9A4922" p-id="3744"></path></svg>